<svg xmlns="http://www.w3.org/2000/svg" viewBox="0 0 120 120" width="120" height="120">
  <defs>
    <linearGradient id="grad" x1="0%" y1="0%" x2="100%" y2="100%">
      <stop offset="0%" stop-color="#2FA8FF" />
      <stop offset="50%" stop-color="#326BFF" />
      <stop offset="100%" stop-color="#9D3CFF" />
    </linearGradient>
    <linearGradient id="shine" x1="0%" y1="0%" x2="100%" y2="100%">
      <stop offset="0%" stop-color="#FFFFFF" stop-opacity="0.8" />
      <stop offset="100%" stop-color="#FFFFFF" stop-opacity="0" />
    </linearGradient>
  </defs>
  <rect width="120" height="120" rx="30" fill="transparent" />
  <path d="M24 34c0-12.7 10.3-23 23-23h26c12.7 0 23 10.3 23 23v27c0 12.7-10.3 23-23 23H62l-16 16V84H47c-12.7 0-23-10.3-23-23V34Z" fill="url(#grad)" />
  <path d="M28 38c0-11 9-20 20-20h26c11 0 20 9 20 20v27c0 11-9 20-20 20H64l-14 14V85H48c-11 0-20-9-20-20V38Z" fill="white" opacity="0.08" />
  <path d="M90 27c-9-8-22-12-34-10-18 2-33 16-35 35-3 22 11 42 32 45 8 1 16 0 23-3l14 14c2 2 5 1 6-1 1-1 1-4-1-6L75 75c13-3 23-14 25-28 1-12-2-24-10-34Z" fill="url(#shine)" />
  <circle cx="42" cy="56" r="7" fill="#FFFFFF" opacity="0.95" />
  <circle cx="60" cy="56" r="7" fill="#FFFFFF" opacity="0.95" />
  <circle cx="78" cy="56" r="7" fill="#FFFFFF" opacity="0.95" />
</svg>
